<svg width="48" height="49" viewBox="0 0 48 49" fill="none" xmlns="http://www.w3.org/2000/svg">
<path d="M40 45.8037H8V3.80371H30L40 13.8037V45.8037Z" fill="#E92D13"/>
<path d="M38.5 14.8037H29V5.30371L38.5 14.8037Z" fill="#FBE9E7"/>
<path d="M15.8098 30.3036V33.8036H13.7998V23.8506H17.1908C18.1748 23.8506 18.9608 24.1566 19.5458 24.7666C20.1308 25.3766 20.4238 26.1696 20.4238 27.1456C20.4238 28.1216 20.1338 28.8906 19.5558 29.4566C18.9778 30.0226 18.1748 30.3036 17.1488 30.3036H15.8098ZM15.8098 28.6286H17.1908C17.5738 28.6286 17.8698 28.5036 18.0798 28.2526C18.2898 28.0016 18.3938 27.6376 18.3938 27.1586C18.3938 26.6616 18.2868 26.2666 18.0728 25.9716C17.8588 25.6786 17.5718 25.5296 17.2118 25.5246H15.8098V28.6286ZM21.7638 33.8036V23.8506H24.3958C25.5578 23.8506 26.4848 24.2196 27.1738 24.9576C27.8648 25.6956 28.2168 26.7076 28.2308 27.9926V29.6056C28.2308 30.9136 27.8848 31.9406 27.1958 32.6846C26.5038 33.4316 25.5528 33.8036 24.3408 33.8036H21.7638ZM23.7728 25.5256V32.1356H24.3748C25.0448 32.1356 25.5168 31.9586 25.7898 31.6056C26.0628 31.2526 26.2068 30.6436 26.2208 29.7776V28.0486C26.2208 27.1186 26.0908 26.4706 25.8308 26.1046C25.5708 25.7376 25.1288 25.5446 24.5048 25.5266H23.7728V25.5256ZM34.8068 29.7426H31.6828V33.8036H29.6728V23.8506H35.1828V25.5256H31.6828V28.0756H34.8068V29.7426Z" fill="#FFEBEE"/>
</svg>
