<svg width="18" height="18" viewBox="0 0 18 18" fill="none" xmlns="http://www.w3.org/2000/svg">
<path d="M9.1875 1.5C7.396 1.5 5.92568 2.00393 4.91016 2.96558C3.89463 3.92723 3.375 5.31893 3.375 6.9375V8.34668C2.94742 8.6881 2.625 9.1615 2.625 9.75C2.625 10.6357 3.26418 11.3513 4.09497 11.543C4.43117 12.8761 4.99007 14.0637 5.77734 14.9355C6.64066 15.8916 7.76508 16.5 9 16.5C9.07454 16.5011 9.14854 16.4873 9.21771 16.4595C9.28688 16.4317 9.34984 16.3904 9.40292 16.3381C9.456 16.2858 9.49815 16.2234 9.52693 16.1546C9.5557 16.0858 9.57051 16.012 9.57051 15.9375C9.57051 15.863 9.5557 15.7892 9.52693 15.7204C9.49815 15.6516 9.456 15.5892 9.40292 15.5369C9.34984 15.4846 9.28688 15.4433 9.21771 15.4155C9.14854 15.3877 9.07454 15.3739 9 15.375C8.13079 15.375 7.3133 14.9574 6.6123 14.1812C5.91131 13.4049 5.35231 12.2733 5.07349 10.9446C5.04691 10.8182 4.97766 10.7048 4.87737 10.6235C4.77707 10.5421 4.65184 10.4977 4.52271 10.4978C4.40769 10.4978 4.40073 10.5 4.5 10.5C4.07912 10.5 3.75 10.1709 3.75 9.75C3.75 9.44864 3.92306 9.20313 4.17847 9.08203C4.27467 9.03642 4.35595 8.96444 4.41287 8.87446C4.46978 8.78448 4.5 8.6802 4.5 8.57373V6.9375C4.5 5.55307 4.91787 4.50733 5.68359 3.78223C6.44932 3.05713 7.604 2.625 9.1875 2.625C11.5565 2.625 13.1146 3.71109 13.8735 5.29761C13.8809 5.31326 13.8796 5.31842 13.8516 5.3269C13.4367 5.45237 12.4334 5.625 11.25 5.625C9.82031 5.625 8.86936 5.3586 8.28442 5.10791C7.69949 4.85722 7.52271 4.6648 7.52271 4.6648C7.45593 4.59802 7.37343 4.54913 7.28279 4.52263C7.19215 4.49612 7.0963 4.49287 7.00407 4.51315C6.91184 4.53343 6.8262 4.57661 6.75505 4.63869C6.6839 4.70078 6.62952 4.77978 6.59692 4.86841C6.59692 4.86841 6.47157 5.25821 5.84399 5.74146C5.78542 5.78657 5.7363 5.84277 5.69945 5.90686C5.66259 5.97095 5.63872 6.04168 5.6292 6.11499C5.61968 6.18831 5.62469 6.26278 5.64395 6.33416C5.66321 6.40554 5.69635 6.47243 5.74146 6.53101C5.78656 6.58958 5.84277 6.6387 5.90686 6.67555C5.97095 6.71241 6.04168 6.73628 6.11499 6.7458C6.18831 6.75532 6.26278 6.75031 6.33416 6.73105C6.40554 6.71179 6.47243 6.67866 6.53101 6.63355C6.89912 6.35009 7.12459 6.0609 7.30225 5.8125C7.48933 5.94206 7.4888 5.99133 7.84058 6.14209C8.56814 6.4539 9.67969 6.75 11.25 6.75C12.0547 6.75 12.747 6.68168 13.3118 6.58887C13.3998 6.85317 13.5 7.23959 13.5 7.6875V11.4375C13.5 12.3763 12.7513 13.125 11.8125 13.125H11.1226C11.0162 12.9007 10.8484 12.7112 10.6386 12.5784C10.4288 12.4457 10.1857 12.3752 9.9375 12.375C9.76514 12.375 9.59447 12.4089 9.43523 12.4749C9.27599 12.5409 9.1313 12.6375 9.00942 12.7594C8.88755 12.8813 8.79087 13.026 8.72491 13.1852C8.65895 13.3445 8.625 13.5151 8.625 13.6875C8.625 13.8599 8.65895 14.0305 8.72491 14.1898C8.79087 14.349 8.88755 14.4937 9.00942 14.6156C9.1313 14.7375 9.27599 14.8341 9.43523 14.9001C9.59447 14.9661 9.76514 15 9.9375 15C10.1856 14.9997 10.4286 14.9291 10.6382 14.7964C10.8478 14.6636 11.0155 14.4742 11.1218 14.25H11.8125C13.2959 14.25 14.5177 13.0848 14.6155 11.625H14.625C15.4534 11.625 16.125 10.9534 16.125 10.125V9.375C16.125 8.54663 15.4534 7.875 14.625 7.875V7.6875C14.625 7.14029 14.5153 6.65464 14.406 6.30542C14.9128 6.01847 15.1527 5.36514 14.8887 4.81201C13.9496 2.84878 11.9148 1.5 9.1875 1.5ZM7.125 9C6.92609 9 6.73532 9.07902 6.59467 9.21967C6.45402 9.36032 6.375 9.55109 6.375 9.75C6.375 9.94891 6.45402 10.1397 6.59467 10.2803C6.73532 10.421 6.92609 10.5 7.125 10.5C7.32391 10.5 7.51468 10.421 7.65533 10.2803C7.79598 10.1397 7.875 9.94891 7.875 9.75C7.875 9.55109 7.79598 9.36032 7.65533 9.21967C7.51468 9.07902 7.32391 9 7.125 9ZM10.875 9C10.6761 9 10.4853 9.07902 10.3447 9.21967C10.204 9.36032 10.125 9.55109 10.125 9.75C10.125 9.94891 10.204 10.1397 10.3447 10.2803C10.4853 10.421 10.6761 10.5 10.875 10.5C11.0739 10.5 11.2647 10.421 11.4053 10.2803C11.546 10.1397 11.625 9.94891 11.625 9.75C11.625 9.55109 11.546 9.36032 11.4053 9.21967C11.2647 9.07902 11.0739 9 10.875 9Z" fill="#FF602E"/>
</svg>
